<svg width="167" height="107" viewBox="0 0 167 107" fill="none" xmlns="http://www.w3.org/2000/svg">
<path fill-rule="evenodd" clip-rule="evenodd" d="M87.126 1C86.726 1.5 86.326 2 85.826 2.5C84.826 3.4 83.826 4.3 82.826 5.2C80.226 7.6 77.726 9.9 75.026 12C61.626 22.5 48.226 33 34.926 43.5L9.12601 63.9C8.72601 64.2 8.32601 64.5 8.02601 64.8C7.32601 65.4 6.52601 65.8 5.62601 65C4.92601 64.4 4.92601 63.3 5.52601 62.6C6.12601 61.6 6.92601 60.6 7.72601 59.8L9.12601 58.5C11.926 55.9 14.826 53.3 17.826 51C39.426 34.4 61.126 17.9 83.626 2.5C84.826 1.6 86.126 0.8 87.426 0C87.526 0.1 87.726 0.2 87.826 0.2C87.626 0.5 87.326 0.7 87.126 1ZM166.026 21.9C165.626 22.1 165.326 22.3 164.926 22.5C164.526 22.7 164.226 23 163.926 23.1C149.326 31.7 134.926 40.6 120.826 50.1C99.226 64.5 77.826 79.3 57.426 95.3C53.626 98.3 49.926 101.3 46.226 104.3C45.726 104.8 45.126 105.2 44.526 105.6C43.726 106.2 42.926 106.5 42.126 105.8C41.426 105.2 41.426 104.1 42.026 103.4C42.626 102.4 43.326 101.4 44.226 100.6L44.326 100.5C46.726 98.2 49.326 96 51.926 93.9C82.326 70.9 113.526 49.4 146.826 30.9C150.626 28.8 154.526 26.8 158.426 24.9C160.326 23.9 162.326 22.9 164.226 21.9C164.726 21.7 165.226 21.5 165.626 21.3C165.826 21.6 165.926 21.7 166.026 21.9ZM99.926 8.5C100.626 8 101.226 7.4 101.826 6.8C101.726 6.7 101.526 6.6 101.326 6.5C100.626 7 99.926 7.5 99.226 8.1C98.526 8.7 97.826 9.1 97.126 9.7L85.026 18.3C65.726 32.2 46.426 46.1 27.226 60.2C21.826 64.1 16.726 68.3 11.626 72.5C9.52601 74.2 7.42601 76 5.32601 77.7C3.82601 78.9 2.52601 80.3 1.22601 81.7C0.626013 82.2 0.226013 82.8 0.026013 83.5C-0.073987 84 0.126013 84.6 0.426013 85C0.826013 85.3 1.42601 85.4 1.92601 85.2C2.72601 84.8 3.42601 84.3 4.12601 83.7C6.52601 81.7 8.92601 79.7 11.326 77.7C15.526 74.1 19.826 70.6 24.126 67.2C34.726 59 45.326 50.8 56.026 42.7C63.826 36.7 71.626 30.7 79.426 24.7C86.326 19.3 93.126 13.9 99.926 8.5ZM100.426 22C99.326 23 98.226 24 97.026 24.9L87.026 32.7C76.026 41.2 65.026 49.7 54.126 58.3C47.726 63.4 41.326 68.6 35.026 73.7C31.526 76.6 28.026 79.4 24.526 82.2C23.726 82.9 22.926 83.6 22.026 84.1C21.426 84.4 20.726 84.4 20.126 84.1C19.726 83.6 19.626 82.8 19.926 82.2C20.326 81.3 20.926 80.6 21.626 79.9L23.726 78C25.426 76.4 27.126 74.8 29.026 73.3C49.026 57.5 69.226 42 90.326 27.7C92.626 26.1 95.026 24.6 97.426 23.1L98.926 22.1C99.326 21.9 99.726 21.7 100.126 21.4C100.226 21.5 100.226 21.6 100.326 21.7L100.426 22ZM107.426 35.4L108.026 34.8C107.926 34.7 107.726 34.6 107.626 34.5C106.126 35.6 104.626 36.7 103.126 37.7C86.426 48.8 70.326 60.7 54.426 72.8C49.726 76.3 45.126 79.9 40.526 83.5C39.626 84.2 38.826 85 38.126 85.8C37.426 86.4 37.326 87.5 37.926 88.2C38.426 88.9 39.526 89.1 40.226 88.6C40.226 88.6 40.326 88.6 40.326 88.5C41.426 87.9 42.526 87.2 43.526 86.4C45.326 85 47.026 83.6 48.726 82.1C50.426 80.6 52.226 79.3 53.926 77.8C66.026 68.3 78.226 58.8 90.426 49.4L105.426 37.4C106.126 36.9 106.726 36.2 107.426 35.4Z" fill="#F58632"/>
</svg>
